<mxfile host="app.diagrams.net" modified="2022-04-23T16:57:10.345Z" agent="5.0 (Windows)" etag="4csJEZ3coSHUJD52JB7R" version="17.4.3" type="github">
  <diagram id="e0Mi98c8-ACJExKGMSNL" name="Page-1">
    <mxGraphModel dx="1384" dy="752" grid="1" gridSize="10" guides="1" tooltips="1" connect="1" arrows="1" fold="1" page="1" pageScale="1" pageWidth="12000" pageHeight="3000" math="1" shadow="0">
      <root>
        <mxCell id="0" />
        <mxCell id="1" parent="0" />
        <mxCell id="sggrvUsozKM5TxAsR07B-76" value="" style="edgeStyle=orthogonalEdgeStyle;rounded=0;orthogonalLoop=1;jettySize=auto;html=1;fontSize=30;entryX=0;entryY=0.5;entryDx=0;entryDy=0;strokeWidth=3;" edge="1" parent="1" source="sggrvUsozKM5TxAsR07B-35" target="sggrvUsozKM5TxAsR07B-66">
          <mxGeometry relative="1" as="geometry" />
        </mxCell>
        <mxCell id="sggrvUsozKM5TxAsR07B-35" value="" style="rounded=1;whiteSpace=wrap;html=1;fontSize=30;strokeWidth=2;fillColor=#f5f5f5;strokeColor=#666666;fontColor=#333333;" vertex="1" parent="1">
          <mxGeometry x="190" y="110" width="180" height="60" as="geometry" />
        </mxCell>
        <mxCell id="sggrvUsozKM5TxAsR07B-32" value="&lt;font style=&quot;font-size: 30px&quot;&gt;0&lt;/font&gt;" style="rounded=1;whiteSpace=wrap;html=1;fillColor=#dae8fc;strokeColor=#6c8ebf;strokeWidth=2;" vertex="1" parent="1">
          <mxGeometry x="200" y="120" width="40" height="40" as="geometry" />
        </mxCell>
        <mxCell id="sggrvUsozKM5TxAsR07B-33" value="&lt;font style=&quot;font-size: 30px&quot;&gt;0&lt;/font&gt;" style="rounded=1;whiteSpace=wrap;html=1;fillColor=#dae8fc;strokeColor=#6c8ebf;strokeWidth=2;" vertex="1" parent="1">
          <mxGeometry x="320" y="120" width="40" height="40" as="geometry" />
        </mxCell>
        <mxCell id="sggrvUsozKM5TxAsR07B-34" value="&lt;font style=&quot;font-size: 30px&quot;&gt;0&lt;/font&gt;" style="rounded=1;whiteSpace=wrap;html=1;fillColor=#dae8fc;strokeColor=#6c8ebf;strokeWidth=2;" vertex="1" parent="1">
          <mxGeometry x="260" y="120" width="40" height="40" as="geometry" />
        </mxCell>
        <mxCell id="sggrvUsozKM5TxAsR07B-36" value="$$X_{clean}$$" style="rounded=1;whiteSpace=wrap;html=1;fontSize=30;strokeWidth=2;fillColor=none;fontColor=#333333;strokeColor=none;" vertex="1" parent="1">
          <mxGeometry x="70" y="110" width="100" height="60" as="geometry" />
        </mxCell>
        <mxCell id="sggrvUsozKM5TxAsR07B-37" value="" style="rounded=1;whiteSpace=wrap;html=1;fontSize=30;strokeWidth=2;fillColor=#fff2cc;strokeColor=#d6b656;" vertex="1" parent="1">
          <mxGeometry x="190" y="230" width="180" height="60" as="geometry" />
        </mxCell>
        <mxCell id="sggrvUsozKM5TxAsR07B-38" value="&lt;font style=&quot;font-size: 30px&quot;&gt;$$\epsilon$$&lt;/font&gt;" style="rounded=1;whiteSpace=wrap;html=1;fillColor=#f8cecc;strokeColor=#b85450;strokeWidth=2;" vertex="1" parent="1">
          <mxGeometry x="200" y="240" width="40" height="40" as="geometry" />
        </mxCell>
        <mxCell id="sggrvUsozKM5TxAsR07B-39" value="&lt;font style=&quot;font-size: 30px&quot;&gt;0&lt;/font&gt;" style="rounded=1;whiteSpace=wrap;html=1;fillColor=#dae8fc;strokeColor=#6c8ebf;strokeWidth=2;" vertex="1" parent="1">
          <mxGeometry x="320" y="240" width="40" height="40" as="geometry" />
        </mxCell>
        <mxCell id="sggrvUsozKM5TxAsR07B-40" value="&lt;font style=&quot;font-size: 30px&quot;&gt;0&lt;/font&gt;" style="rounded=1;whiteSpace=wrap;html=1;fillColor=#dae8fc;strokeColor=#6c8ebf;strokeWidth=2;" vertex="1" parent="1">
          <mxGeometry x="260" y="240" width="40" height="40" as="geometry" />
        </mxCell>
        <mxCell id="sggrvUsozKM5TxAsR07B-41" value="$$X^{(1)}_{adv}$$" style="rounded=1;whiteSpace=wrap;html=1;fontSize=30;strokeWidth=2;fillColor=none;fontColor=#333333;strokeColor=none;" vertex="1" parent="1">
          <mxGeometry x="70" y="230" width="100" height="60" as="geometry" />
        </mxCell>
        <mxCell id="sggrvUsozKM5TxAsR07B-42" value="" style="rounded=1;whiteSpace=wrap;html=1;fontSize=30;strokeWidth=2;fillColor=#fff2cc;strokeColor=#d6b656;" vertex="1" parent="1">
          <mxGeometry x="190" y="310" width="180" height="60" as="geometry" />
        </mxCell>
        <mxCell id="sggrvUsozKM5TxAsR07B-43" value="&lt;font style=&quot;font-size: 30px&quot;&gt;0&lt;/font&gt;" style="rounded=1;whiteSpace=wrap;html=1;fillColor=#dae8fc;strokeColor=#6c8ebf;strokeWidth=2;" vertex="1" parent="1">
          <mxGeometry x="200" y="320" width="40" height="40" as="geometry" />
        </mxCell>
        <mxCell id="sggrvUsozKM5TxAsR07B-44" value="&lt;font style=&quot;font-size: 30px&quot;&gt;0&lt;/font&gt;" style="rounded=1;whiteSpace=wrap;html=1;fillColor=#dae8fc;strokeColor=#6c8ebf;strokeWidth=2;" vertex="1" parent="1">
          <mxGeometry x="320" y="320" width="40" height="40" as="geometry" />
        </mxCell>
        <mxCell id="sggrvUsozKM5TxAsR07B-46" value="$$X^{(2)}_{adv}$$" style="rounded=1;whiteSpace=wrap;html=1;fontSize=30;strokeWidth=2;fillColor=none;fontColor=#333333;strokeColor=none;" vertex="1" parent="1">
          <mxGeometry x="70" y="310" width="100" height="60" as="geometry" />
        </mxCell>
        <mxCell id="sggrvUsozKM5TxAsR07B-47" value="" style="rounded=1;whiteSpace=wrap;html=1;fontSize=30;strokeWidth=2;fillColor=#fff2cc;strokeColor=#d6b656;" vertex="1" parent="1">
          <mxGeometry x="190" y="390" width="180" height="60" as="geometry" />
        </mxCell>
        <mxCell id="sggrvUsozKM5TxAsR07B-48" value="&lt;font style=&quot;font-size: 30px&quot;&gt;0&lt;/font&gt;" style="rounded=1;whiteSpace=wrap;html=1;fillColor=#dae8fc;strokeColor=#6c8ebf;strokeWidth=2;" vertex="1" parent="1">
          <mxGeometry x="200" y="400" width="40" height="40" as="geometry" />
        </mxCell>
        <mxCell id="sggrvUsozKM5TxAsR07B-50" value="&lt;font style=&quot;font-size: 30px&quot;&gt;0&lt;/font&gt;" style="rounded=1;whiteSpace=wrap;html=1;fillColor=#dae8fc;strokeColor=#6c8ebf;strokeWidth=2;" vertex="1" parent="1">
          <mxGeometry x="260" y="400" width="40" height="40" as="geometry" />
        </mxCell>
        <mxCell id="sggrvUsozKM5TxAsR07B-51" value="$$X^{(3)}_{adv}$$" style="rounded=1;whiteSpace=wrap;html=1;fontSize=30;strokeWidth=2;fillColor=none;fontColor=#333333;strokeColor=none;" vertex="1" parent="1">
          <mxGeometry x="70" y="390" width="100" height="60" as="geometry" />
        </mxCell>
        <mxCell id="sggrvUsozKM5TxAsR07B-52" value="" style="rounded=1;whiteSpace=wrap;html=1;fontSize=30;strokeWidth=2;fillColor=#ffe6cc;strokeColor=#d79b00;" vertex="1" parent="1">
          <mxGeometry x="190" y="510" width="180" height="60" as="geometry" />
        </mxCell>
        <mxCell id="sggrvUsozKM5TxAsR07B-56" value="$$X^{*}_{adv}$$" style="rounded=1;whiteSpace=wrap;html=1;fontSize=30;strokeWidth=2;fillColor=none;fontColor=#333333;strokeColor=none;" vertex="1" parent="1">
          <mxGeometry x="70" y="510" width="100" height="60" as="geometry" />
        </mxCell>
        <mxCell id="sggrvUsozKM5TxAsR07B-57" value="&lt;font style=&quot;font-size: 30px&quot;&gt;$$\epsilon$$&lt;/font&gt;" style="rounded=1;whiteSpace=wrap;html=1;fillColor=#f8cecc;strokeColor=#b85450;strokeWidth=2;" vertex="1" parent="1">
          <mxGeometry x="260" y="320" width="40" height="40" as="geometry" />
        </mxCell>
        <mxCell id="sggrvUsozKM5TxAsR07B-58" value="&lt;font style=&quot;font-size: 30px&quot;&gt;$$\epsilon$$&lt;/font&gt;" style="rounded=1;whiteSpace=wrap;html=1;fillColor=#f8cecc;strokeColor=#b85450;strokeWidth=2;" vertex="1" parent="1">
          <mxGeometry x="320" y="400" width="40" height="40" as="geometry" />
        </mxCell>
        <mxCell id="sggrvUsozKM5TxAsR07B-59" value="&lt;font style=&quot;font-size: 30px&quot;&gt;$$\epsilon$$&lt;/font&gt;" style="rounded=1;whiteSpace=wrap;html=1;fillColor=#f8cecc;strokeColor=#b85450;strokeWidth=2;" vertex="1" parent="1">
          <mxGeometry x="200" y="520" width="40" height="40" as="geometry" />
        </mxCell>
        <mxCell id="sggrvUsozKM5TxAsR07B-60" value="&lt;font style=&quot;font-size: 30px&quot;&gt;$$\epsilon$$&lt;/font&gt;" style="rounded=1;whiteSpace=wrap;html=1;fillColor=#f8cecc;strokeColor=#b85450;strokeWidth=2;" vertex="1" parent="1">
          <mxGeometry x="260" y="520" width="40" height="40" as="geometry" />
        </mxCell>
        <mxCell id="sggrvUsozKM5TxAsR07B-61" value="&lt;font style=&quot;font-size: 30px&quot;&gt;$$\epsilon$$&lt;/font&gt;" style="rounded=1;whiteSpace=wrap;html=1;fillColor=#f8cecc;strokeColor=#b85450;strokeWidth=2;" vertex="1" parent="1">
          <mxGeometry x="320" y="520" width="40" height="40" as="geometry" />
        </mxCell>
        <mxCell id="sggrvUsozKM5TxAsR07B-66" value="$$y_{clean}$$" style="rounded=1;whiteSpace=wrap;html=1;fontSize=30;strokeWidth=2;fillColor=#f5f5f5;fontColor=#333333;strokeColor=#666666;" vertex="1" parent="1">
          <mxGeometry x="870" y="110" width="100" height="60" as="geometry" />
        </mxCell>
        <mxCell id="sggrvUsozKM5TxAsR07B-67" value="&lt;font style=&quot;font-size: 30px&quot;&gt;$$y$$&lt;/font&gt;" style="rounded=1;whiteSpace=wrap;html=1;fillColor=none;strokeColor=none;strokeWidth=2;" vertex="1" parent="1">
          <mxGeometry x="900" y="40" width="40" height="40" as="geometry" />
        </mxCell>
        <mxCell id="sggrvUsozKM5TxAsR07B-72" value="$$y^{(1)}_{adv}$$" style="rounded=1;whiteSpace=wrap;html=1;fontSize=30;strokeWidth=2;fillColor=#fff2cc;strokeColor=#d6b656;" vertex="1" parent="1">
          <mxGeometry x="870" y="230" width="100" height="60" as="geometry" />
        </mxCell>
        <mxCell id="sggrvUsozKM5TxAsR07B-73" value="$$y^{(2)}_{adv}$$" style="rounded=1;whiteSpace=wrap;html=1;fontSize=30;strokeWidth=2;fillColor=#fff2cc;strokeColor=#d6b656;" vertex="1" parent="1">
          <mxGeometry x="870" y="310" width="100" height="60" as="geometry" />
        </mxCell>
        <mxCell id="sggrvUsozKM5TxAsR07B-74" value="$$y^{(3)}_{adv}$$" style="rounded=1;whiteSpace=wrap;html=1;fontSize=30;strokeWidth=2;fillColor=#fff2cc;strokeColor=#d6b656;" vertex="1" parent="1">
          <mxGeometry x="870" y="390" width="100" height="60" as="geometry" />
        </mxCell>
        <mxCell id="sggrvUsozKM5TxAsR07B-75" value="$$y^{*}_{adv}$$" style="rounded=1;whiteSpace=wrap;html=1;fontSize=30;strokeWidth=2;fillColor=#ffe6cc;strokeColor=#d79b00;" vertex="1" parent="1">
          <mxGeometry x="870" y="510" width="100" height="60" as="geometry" />
        </mxCell>
        <mxCell id="sggrvUsozKM5TxAsR07B-77" value="" style="edgeStyle=orthogonalEdgeStyle;rounded=0;orthogonalLoop=1;jettySize=auto;html=1;fontSize=30;entryX=0;entryY=0.5;entryDx=0;entryDy=0;strokeWidth=3;" edge="1" parent="1" target="sggrvUsozKM5TxAsR07B-72">
          <mxGeometry relative="1" as="geometry">
            <mxPoint x="370" y="259.5" as="sourcePoint" />
            <mxPoint x="790" y="259.5" as="targetPoint" />
          </mxGeometry>
        </mxCell>
        <mxCell id="sggrvUsozKM5TxAsR07B-78" value="" style="edgeStyle=orthogonalEdgeStyle;rounded=0;orthogonalLoop=1;jettySize=auto;html=1;fontSize=30;entryX=0;entryY=0.5;entryDx=0;entryDy=0;strokeWidth=3;" edge="1" parent="1" target="sggrvUsozKM5TxAsR07B-73">
          <mxGeometry relative="1" as="geometry">
            <mxPoint x="370" y="339.5" as="sourcePoint" />
            <mxPoint x="790" y="339.5" as="targetPoint" />
          </mxGeometry>
        </mxCell>
        <mxCell id="sggrvUsozKM5TxAsR07B-79" value="" style="edgeStyle=orthogonalEdgeStyle;rounded=0;orthogonalLoop=1;jettySize=auto;html=1;fontSize=30;entryX=0;entryY=0.5;entryDx=0;entryDy=0;strokeWidth=3;" edge="1" parent="1" target="sggrvUsozKM5TxAsR07B-74">
          <mxGeometry relative="1" as="geometry">
            <mxPoint x="370" y="419.5" as="sourcePoint" />
            <mxPoint x="790" y="419.5" as="targetPoint" />
          </mxGeometry>
        </mxCell>
        <mxCell id="sggrvUsozKM5TxAsR07B-80" value="" style="edgeStyle=orthogonalEdgeStyle;rounded=0;orthogonalLoop=1;jettySize=auto;html=1;fontSize=30;entryX=0;entryY=0.5;entryDx=0;entryDy=0;strokeWidth=3;" edge="1" parent="1" target="sggrvUsozKM5TxAsR07B-75">
          <mxGeometry relative="1" as="geometry">
            <mxPoint x="370" y="539.5" as="sourcePoint" />
            <mxPoint x="790" y="539.5" as="targetPoint" />
          </mxGeometry>
        </mxCell>
        <mxCell id="sggrvUsozKM5TxAsR07B-65" value="&lt;div&gt;RNN&lt;/div&gt;&lt;div&gt;&lt;br&gt;&lt;/div&gt;&lt;div&gt;\( h^{(1)} = tanh(x^{(1)}); \phantom{ + h^{(1)}} \)&lt;/div&gt;&lt;div&gt;\( h^{(2)} = tanh(x^{(2)} + h^{(1)}); \)&lt;/div&gt;&lt;div&gt;\( y \phantom{^{(2)}} = tanh(x^{(3)} + h^{(2)}). \)&lt;/div&gt;" style="rounded=1;whiteSpace=wrap;html=1;fontSize=30;strokeWidth=2;fillColor=#d5e8d4;arcSize=4;strokeColor=#82b366;" vertex="1" parent="1">
          <mxGeometry x="420" y="110" width="400" height="460" as="geometry" />
        </mxCell>
        <mxCell id="sggrvUsozKM5TxAsR07B-81" value="&lt;font style=&quot;font-size: 30px&quot;&gt;Input&lt;/font&gt;" style="rounded=1;whiteSpace=wrap;html=1;fillColor=none;strokeColor=none;strokeWidth=2;" vertex="1" parent="1">
          <mxGeometry x="240" y="600" width="80" height="40" as="geometry" />
        </mxCell>
        <mxCell id="sggrvUsozKM5TxAsR07B-82" value="&lt;font style=&quot;font-size: 30px&quot;&gt;Output&lt;/font&gt;" style="rounded=1;whiteSpace=wrap;html=1;fillColor=none;strokeColor=none;strokeWidth=2;" vertex="1" parent="1">
          <mxGeometry x="880" y="600" width="80" height="40" as="geometry" />
        </mxCell>
        <mxCell id="sggrvUsozKM5TxAsR07B-83" value="&lt;font style=&quot;font-size: 30px&quot;&gt;Model&lt;/font&gt;" style="rounded=1;whiteSpace=wrap;html=1;fillColor=none;strokeColor=none;strokeWidth=2;" vertex="1" parent="1">
          <mxGeometry x="540" y="600" width="80" height="40" as="geometry" />
        </mxCell>
        <mxCell id="sggrvUsozKM5TxAsR07B-84" value="&lt;font style=&quot;font-size: 30px&quot;&gt;Bounds&lt;/font&gt;" style="rounded=1;whiteSpace=wrap;html=1;fillColor=none;strokeColor=none;strokeWidth=2;" vertex="1" parent="1">
          <mxGeometry x="1000" y="600" width="160" height="40" as="geometry" />
        </mxCell>
        <mxCell id="sggrvUsozKM5TxAsR07B-85" value="&lt;font style=&quot;font-size: 30px&quot;&gt;\(y \le 0 \)&lt;br&gt;&lt;/font&gt;" style="rounded=1;whiteSpace=wrap;html=1;fillColor=none;strokeColor=none;strokeWidth=2;" vertex="1" parent="1">
          <mxGeometry x="1000" y="120" width="160" height="40" as="geometry" />
        </mxCell>
        <mxCell id="sggrvUsozKM5TxAsR07B-86" value="&lt;font style=&quot;font-size: 25px&quot;&gt;Perturbation: \(-1 \le \epsilon \le 1\); Robustness specification: \(y \le 1 \).&lt;br&gt;&lt;/font&gt;" style="rounded=1;whiteSpace=wrap;html=1;fillColor=none;strokeColor=none;strokeWidth=2;" vertex="1" parent="1">
          <mxGeometry x="80" y="680" width="1280" height="40" as="geometry" />
        </mxCell>
        <mxCell id="sggrvUsozKM5TxAsR07B-87" value="&lt;font style=&quot;font-size: 30px&quot;&gt;$$X=[x^{(1)},x^{(2)},x^{(3)}]$$&lt;/font&gt;" style="rounded=1;whiteSpace=wrap;html=1;fillColor=none;strokeColor=none;strokeWidth=2;" vertex="1" parent="1">
          <mxGeometry x="90" y="40" width="270" height="40" as="geometry" />
        </mxCell>
        <mxCell id="sggrvUsozKM5TxAsR07B-88" value="&lt;font style=&quot;font-size: 30px&quot;&gt;\(y \le 0.56 \)&lt;br&gt;&lt;/font&gt;" style="rounded=1;whiteSpace=wrap;html=1;fillColor=none;strokeColor=none;strokeWidth=2;" vertex="1" parent="1">
          <mxGeometry x="1000" y="240" width="160" height="40" as="geometry" />
        </mxCell>
        <mxCell id="sggrvUsozKM5TxAsR07B-89" value="&lt;font style=&quot;font-size: 30px&quot;&gt;\(y \le 0.64 \)&lt;br&gt;&lt;/font&gt;" style="rounded=1;whiteSpace=wrap;html=1;fillColor=none;strokeColor=none;strokeWidth=2;" vertex="1" parent="1">
          <mxGeometry x="1000" y="320" width="160" height="40" as="geometry" />
        </mxCell>
        <mxCell id="sggrvUsozKM5TxAsR07B-90" value="&lt;font style=&quot;font-size: 30px&quot;&gt;\(y \le 0.76 \)&lt;br&gt;&lt;/font&gt;" style="rounded=1;whiteSpace=wrap;html=1;fillColor=none;strokeColor=none;strokeWidth=2;" vertex="1" parent="1">
          <mxGeometry x="1000" y="400" width="160" height="40" as="geometry" />
        </mxCell>
        <mxCell id="sggrvUsozKM5TxAsR07B-91" value="&lt;font style=&quot;font-size: 30px&quot;&gt;\(y \le 1.96 \)&lt;br&gt;&lt;/font&gt;" style="rounded=1;whiteSpace=wrap;html=1;fillColor=none;strokeColor=none;strokeWidth=2;" vertex="1" parent="1">
          <mxGeometry x="1000" y="520" width="160" height="40" as="geometry" />
        </mxCell>
        <mxCell id="sggrvUsozKM5TxAsR07B-92" value="&lt;font style=&quot;font-size: 30px&quot;&gt;Robustness&lt;/font&gt;" style="rounded=1;whiteSpace=wrap;html=1;fillColor=none;strokeColor=none;strokeWidth=2;" vertex="1" parent="1">
          <mxGeometry x="1200" y="600" width="160" height="40" as="geometry" />
        </mxCell>
        <mxCell id="sggrvUsozKM5TxAsR07B-93" value="&lt;font style=&quot;font-size: 30px&quot;&gt;True&lt;/font&gt;" style="rounded=1;whiteSpace=wrap;html=1;fillColor=#f5f5f5;strokeColor=#666666;strokeWidth=2;fontColor=#333333;" vertex="1" parent="1">
          <mxGeometry x="1230" y="110" width="100" height="60" as="geometry" />
        </mxCell>
        <mxCell id="sggrvUsozKM5TxAsR07B-94" value="&lt;font style=&quot;font-size: 30px&quot;&gt;True&lt;/font&gt;" style="rounded=1;whiteSpace=wrap;html=1;fillColor=#fff2cc;strokeColor=#d6b656;strokeWidth=2;" vertex="1" parent="1">
          <mxGeometry x="1230" y="230" width="100" height="60" as="geometry" />
        </mxCell>
        <mxCell id="sggrvUsozKM5TxAsR07B-95" value="&lt;font style=&quot;font-size: 30px&quot;&gt;True&lt;/font&gt;" style="rounded=1;whiteSpace=wrap;html=1;fillColor=#fff2cc;strokeColor=#d6b656;strokeWidth=2;" vertex="1" parent="1">
          <mxGeometry x="1230" y="310" width="100" height="60" as="geometry" />
        </mxCell>
        <mxCell id="sggrvUsozKM5TxAsR07B-96" value="&lt;font style=&quot;font-size: 30px&quot;&gt;True&lt;/font&gt;" style="rounded=1;whiteSpace=wrap;html=1;fillColor=#fff2cc;strokeColor=#d6b656;strokeWidth=2;" vertex="1" parent="1">
          <mxGeometry x="1230" y="390" width="100" height="60" as="geometry" />
        </mxCell>
        <mxCell id="sggrvUsozKM5TxAsR07B-97" value="&lt;font style=&quot;font-size: 30px&quot;&gt;False&lt;/font&gt;" style="rounded=1;whiteSpace=wrap;html=1;fillColor=#ffe6cc;strokeColor=#d79b00;strokeWidth=2;" vertex="1" parent="1">
          <mxGeometry x="1230" y="510" width="100" height="60" as="geometry" />
        </mxCell>
      </root>
    </mxGraphModel>
  </diagram>
</mxfile>
